{"title":"The.Invention.of.Lying 2009.DvDRiP.XViD.AC3(5.1).Optional MultiS","uid":5816240,"size":1523224954,"categoryP":"video","categoryS":"movies","magnet":"?xt=urn:btih:087ae18541a52d1a5a537e0f7a411a39605ab93e&amp;dn=The.Invention.of.Lying+2009.DvDRiP.XViD.AC3%285.1%29.Optional+MultiS&amp;tr=udp%3A%2F%2Ftracker.openbittorrent.com%3A80&amp;tr=udp%3A%2F%2Fopen.demonii.com%3A1337&amp;tr=udp%3A%2F%2Ftracker.coppersurfer.tk%3A6969&amp;tr=udp%3A%2F%2Fexodus.desync.com%3A6969","seeders":0,"leechers":1,"uploader":"Zen_Bud","files":-1,"time":1283846508,"description":"Complete name                    : The.Invention.of.Lying 2009.avi\nFormat                           : AVI\nFile size                        : 1.37 GiB\nDuration                         : 1h 35mn\nOverall bit rate                 : 2 049 Kbps\n\nVideo\n\nFormat                           : MPEG-4 Visual\nCodec ID/Hint                    : XviD\nDuration                         : 1h 35mn\nBit rate                         : 1 654 Kbps\nWidth                            : 720 pixels\nHeight                           : 552 pixels\nDisplay aspect ratio             : 1.855\nStream size                      : 1.10 GiB (81%)\nWriting library                  : XviD 1.1.2 (UTC 2006-11-01)\n\nAudio\n\nFormat                           : AC-3\nDuration                         : 1h 35mn\nBit rate                         : 384 Kbps\nChannel(s)                       : 6 channels\nChannel positions                : Front: L C R, Side: L R, LFE\nSampling rate                    : 48.0 KHz\nBit depth                        : 16 bits\nStream size                      : 263 MiB (19%)\n\n\nText #1\nLanguage                         : English\n\nText #2\nLanguage                         : German\n\nText #3\nLanguage                         : Turkish\n\nText #4\nLanguage                         : Arabic\n\nText #5\nLanguage                         : Danish\n\nText #6\nLanguage                         : Finnish\n\nText #7\nLanguage                         : Icelandic\n\nText #8\nLanguage                         : Norwegian\n\nText #9\nLanguage                         : Swedish","torrent":{"xt":"urn:btih:087ae18541a52d1a5a537e0f7a411a39605ab93e","amp;dn":"The.Invention.of.Lying+2009.DvDRiP.XViD.AC3%285.1%29.Optional+MultiS","amp;tr":["udp%3A%2F%2Ftracker.openbittorrent.com%3A80","udp%3A%2F%2Fopen.demonii.com%3A1337","udp%3A%2F%2Ftracker.coppersurfer.tk%3A6969","udp%3A%2F%2Fexodus.desync.com%3A6969"],"infoHash":"087ae18541a52d1a5a537e0f7a411a39605ab93e","infoHashBuffer":{"type":"Buffer","data":[8,122,225,133,65,165,45,26,90,83,126,15,122,65,26,57,96,90,185,62]},"announce":[],"urlList":[]}}